<svg width="37" height="37" viewBox="0 0 37 37" fill="none" xmlns="http://www.w3.org/2000/svg">
<path d="M17.1983 3.80175L18.5 2.5M11.3889 25.6111L25.6111 11.3889M18.5 34.5L19.8017 33.1983M26.5 30.9444C27.6787 30.9444 28.8092 30.4762 29.6427 29.6427C30.4762 28.8092 30.9444 27.6787 30.9444 26.5C30.9444 25.3213 30.4762 24.1908 29.6427 23.3573C28.8092 22.5238 27.6787 22.0556 26.5 22.0556C25.3213 22.0556 24.1908 22.5238 23.3573 23.3573C22.5238 24.1908 22.0556 25.3213 22.0556 26.5C22.0556 27.6787 22.5238 28.8092 23.3573 29.6427C24.1908 30.4762 25.3213 30.9444 26.5 30.9444ZM10.5 14.9444C11.6787 14.9444 12.8092 14.4762 13.6427 13.6427C14.4762 12.8092 14.9444 11.6787 14.9444 10.5C14.9444 9.32126 14.4762 8.1908 13.6427 7.3573C12.8092 6.52381 11.6787 6.05556 10.5 6.05556C9.32126 6.05556 8.1908 6.52381 7.3573 7.3573C6.52381 8.1908 6.05556 9.32126 6.05556 10.5C6.05556 11.6787 6.52381 12.8092 7.3573 13.6427C8.1908 14.4762 9.32126 14.9444 10.5 14.9444ZM6.94444 34.5C8.12318 34.5 9.25365 34.0317 10.0871 33.1983C10.9206 32.3648 11.3889 31.2343 11.3889 30.0556C11.3889 28.8768 10.9206 27.7464 10.0871 26.9129C9.25365 26.0794 8.12318 25.6111 6.94444 25.6111C5.7657 25.6111 4.63524 26.0794 3.80175 26.9129C2.96825 27.7464 2.5 28.8768 2.5 30.0556C2.5 31.2343 2.96825 32.3648 3.80175 33.1983C4.63524 34.0317 5.7657 34.5 6.94444 34.5ZM30.0556 11.3889C31.2343 11.3889 32.3648 10.9206 33.1983 10.0871C34.0317 9.25365 34.5 8.12318 34.5 6.94444C34.5 5.7657 34.0317 4.63524 33.1983 3.80175C32.3648 2.96825 31.2343 2.5 30.0556 2.5C28.8768 2.5 27.7464 2.96825 26.9129 3.80175C26.0794 4.63524 25.6111 5.7657 25.6111 6.94444C25.6111 8.12318 26.0794 9.25365 26.9129 10.0871C27.7464 10.9206 28.8768 11.3889 30.0556 11.3889Z" stroke="#607EE8" stroke-width="3.55556" stroke-linecap="round" stroke-linejoin="round"/>
</svg>
