<svg width="195" height="37" viewBox="0 0 195 37" fill="none" xmlns="http://www.w3.org/2000/svg">
<path d="M14.0573 6.43724L15.1252 5.36938M9.29177 24.328L20.9586 12.6612M15.1252 31.6198L16.193 30.5519M21.6878 28.7031C22.6547 28.7031 23.5821 28.3189 24.2658 27.6352C24.9496 26.9515 25.3337 26.0241 25.3337 25.0572C25.3337 24.0902 24.9496 23.1629 24.2658 22.4791C23.5821 21.7954 22.6547 21.4113 21.6878 21.4113C20.7208 21.4113 19.7935 21.7954 19.1098 22.4791C18.426 23.1629 18.0419 24.0902 18.0419 25.0572C18.0419 26.0241 18.426 26.9515 19.1098 27.6352C19.7935 28.3189 20.7208 28.7031 21.6878 28.7031ZM8.5626 15.5779C9.52955 15.5779 10.4569 15.1937 11.1406 14.51C11.8244 13.8263 12.2085 12.8989 12.2085 11.932C12.2085 10.965 11.8244 10.0377 11.1406 9.35395C10.4569 8.67021 9.52955 8.28609 8.5626 8.28609C7.59565 8.28609 6.6683 8.67021 5.98457 9.35395C5.30083 10.0377 4.91671 10.965 4.91671 11.932C4.91671 12.8989 5.30083 13.8263 5.98457 14.51C6.6683 15.1937 7.59565 15.5779 8.5626 15.5779ZM5.64589 31.6198C6.61284 31.6198 7.54018 31.2357 8.22392 30.5519C8.90765 29.8682 9.29177 28.9408 9.29177 27.9739C9.29177 27.0069 8.90765 26.0796 8.22392 25.3959C7.54018 24.7121 6.61284 24.328 5.64589 24.328C4.67894 24.328 3.75159 24.7121 3.06786 25.3959C2.38412 26.0796 2 27.0069 2 27.9739C2 28.9408 2.38412 29.8682 3.06786 30.5519C3.75159 31.2357 4.67894 31.6198 5.64589 31.6198ZM24.6045 12.6612C25.5714 12.6612 26.4988 12.277 27.1825 11.5933C27.8663 10.9096 28.2504 9.98222 28.2504 9.01527C28.2504 8.04832 27.8663 7.12098 27.1825 6.43724C26.4988 5.7535 25.5714 5.36938 24.6045 5.36938C23.6376 5.36938 22.7102 5.7535 22.0265 6.43724C21.3427 7.12098 20.9586 8.04832 20.9586 9.01527C20.9586 9.98222 21.3427 10.9096 22.0265 11.5933C22.7102 12.277 23.6376 12.6612 24.6045 12.6612Z" stroke="white" stroke-width="2.91671" stroke-linecap="round" stroke-linejoin="round"/>
<path d="M36.1852 30V12.9671H42.2108V26.6889L40.8983 26.2713L49.8175 12.9671H57.6329V30H51.6371V15.8904L52.9496 16.3379L43.7918 30H36.1852ZM81.3189 22.811C81.1598 24.3422 80.603 25.6846 79.6484 26.838C78.6938 27.9914 77.4509 28.8863 75.9197 29.5227C74.4083 30.1591 72.708 30.4773 70.8187 30.4773C68.7306 30.4773 66.8911 30.0994 65.3002 29.3437C63.7093 28.588 62.4663 27.5341 61.5714 26.1818C60.6765 24.8295 60.2291 23.2684 60.2291 21.4985C60.2291 19.7087 60.6765 18.1376 61.5714 16.7853C62.4663 15.433 63.7093 14.379 65.3002 13.6233C66.8911 12.8478 68.7306 12.46 70.8187 12.46C72.708 12.46 74.4083 12.7881 75.9197 13.4444C77.4509 14.0807 78.6938 14.9756 79.6484 16.1291C80.603 17.2626 81.1598 18.6049 81.3189 20.1561H75.2634C75.0446 19.1419 74.5375 18.3663 73.7421 17.8294C72.9466 17.2725 71.9722 16.9941 70.8187 16.9941C69.9238 16.9941 69.1383 17.1731 68.4622 17.5311C67.8059 17.8691 67.2889 18.3762 66.911 19.0524C66.553 19.7087 66.3741 20.524 66.3741 21.4985C66.3741 22.453 66.553 23.2684 66.911 23.9445C67.2889 24.6008 67.8059 25.1079 68.4622 25.4658C69.1383 25.8039 69.9238 25.973 70.8187 25.973C71.9722 25.973 72.9466 25.6846 73.7421 25.1079C74.5574 24.5312 75.0645 23.7655 75.2634 22.811H81.3189ZM83.7267 30V12.9671H89.8419V25.257L88.0521 24.6306L97.538 12.9671H103.981L89.1558 30H83.7267ZM97.5977 30L92.7354 21.6774L97.3292 18.4558L104.459 30H97.5977ZM105.866 12.9671H111.981V17.8592L111.713 18.5751V23.3479L111.981 24.7499V34.9219H105.866V12.9671ZM110.042 21.4985C110.301 19.649 110.838 18.0581 111.653 16.7257C112.488 15.3734 113.542 14.3293 114.815 13.5935C116.088 12.8378 117.53 12.46 119.141 12.46C120.811 12.46 122.273 12.8378 123.526 13.5935C124.798 14.3492 125.783 15.4032 126.479 16.7555C127.195 18.1078 127.553 19.6888 127.553 21.4985C127.553 23.2684 127.195 24.8394 126.479 26.2116C125.783 27.5639 124.798 28.6179 123.526 29.3736C122.273 30.1094 120.811 30.4773 119.141 30.4773C117.53 30.4773 116.088 30.1094 114.815 29.3736C113.542 28.6179 112.498 27.5639 111.683 26.2116C110.868 24.8593 110.321 23.2883 110.042 21.4985ZM121.408 21.4985C121.408 20.6433 121.229 19.8876 120.871 19.2314C120.533 18.5751 120.045 18.0581 119.409 17.6802C118.793 17.3024 118.087 17.1134 117.291 17.1134C116.476 17.1134 115.7 17.3024 114.964 17.6802C114.229 18.0581 113.582 18.5751 113.025 19.2314C112.469 19.8876 112.041 20.6433 111.743 21.4985C112.041 22.3337 112.469 23.0794 113.025 23.7357C113.582 24.392 114.229 24.909 114.964 25.2869C115.7 25.6448 116.476 25.8238 117.291 25.8238C118.087 25.8238 118.793 25.6448 119.409 25.2869C120.045 24.909 120.533 24.392 120.871 23.7357C121.229 23.0794 121.408 22.3337 121.408 21.4985ZM145.583 30L144.807 23.855L145.613 21.4985L144.807 19.1419L145.583 12.9671H151.907L150.833 21.4686L151.907 30H145.583ZM147.015 21.4985C146.736 23.2883 146.179 24.8593 145.344 26.2116C144.529 27.5639 143.485 28.6179 142.212 29.3736C140.959 30.1094 139.527 30.4773 137.916 30.4773C136.246 30.4773 134.774 30.1094 133.502 29.3736C132.249 28.6179 131.264 27.5639 130.548 26.2116C129.832 24.8394 129.475 23.2684 129.475 21.4985C129.475 19.6888 129.832 18.1078 130.548 16.7555C131.264 15.4032 132.249 14.3492 133.502 13.5935C134.774 12.8378 136.246 12.46 137.916 12.46C139.527 12.46 140.959 12.8378 142.212 13.5935C143.485 14.3293 144.539 15.3734 145.374 16.7257C146.209 18.0581 146.756 19.649 147.015 21.4985ZM135.649 21.4985C135.649 22.3337 135.818 23.0794 136.156 23.7357C136.514 24.392 137.002 24.909 137.618 25.2869C138.235 25.6448 138.941 25.8238 139.736 25.8238C140.571 25.8238 141.357 25.6448 142.093 25.2869C142.828 24.909 143.475 24.392 144.032 23.7357C144.588 23.0794 145.006 22.3337 145.284 21.4985C145.006 20.6433 144.588 19.8876 144.032 19.2314C143.475 18.5751 142.828 18.0581 142.093 17.6802C141.357 17.3024 140.571 17.1134 139.736 17.1134C138.941 17.1134 138.235 17.3024 137.618 17.6802C137.002 18.0581 136.514 18.5751 136.156 19.2314C135.818 19.8876 135.649 20.6433 135.649 21.4985ZM154.775 17.1731H162.621V21.9757H154.775V17.1731ZM165.905 30V12.9671H175.063L180.343 26.6889H178.642L183.833 12.9671H192.99V30H187.293V15.264H188.277L182.252 30H176.673L170.648 15.3236L171.632 15.264V30H165.905Z" fill="white"/>
</svg>
