<svg width="299" height="299" viewBox="0 0 299 299" fill="none" xmlns="http://www.w3.org/2000/svg">
<path d="M138.557 25.9428L149.5 15M89.7222 209.278L209.278 89.7222M149.5 284L160.443 273.057M216.75 254.111C226.659 254.111 236.162 250.175 243.168 243.168C250.175 236.162 254.111 226.659 254.111 216.75C254.111 206.841 250.175 197.338 243.168 190.332C236.162 183.325 226.659 179.389 216.75 179.389C206.841 179.389 197.338 183.325 190.332 190.332C183.325 197.338 179.389 206.841 179.389 216.75C179.389 226.659 183.325 236.162 190.332 243.168C197.338 250.175 206.841 254.111 216.75 254.111ZM82.25 119.611C92.1588 119.611 101.662 115.675 108.668 108.668C115.675 101.662 119.611 92.1588 119.611 82.25C119.611 72.3412 115.675 62.8383 108.668 55.8317C101.662 48.8251 92.1588 44.8889 82.25 44.8889C72.3412 44.8889 62.8383 48.8251 55.8317 55.8317C48.8251 62.8383 44.8889 72.3412 44.8889 82.25C44.8889 92.1588 48.8251 101.662 55.8317 108.668C62.8383 115.675 72.3412 119.611 82.25 119.611ZM52.3611 284C62.2699 284 71.7728 280.064 78.7794 273.057C85.786 266.051 89.7222 256.548 89.7222 246.639C89.7222 236.73 85.786 227.227 78.7794 220.221C71.7728 213.214 62.2699 209.278 52.3611 209.278C42.4523 209.278 32.9494 213.214 25.9428 220.221C18.9362 227.227 15 236.73 15 246.639C15 256.548 18.9362 266.051 25.9428 273.057C32.9494 280.064 42.4523 284 52.3611 284ZM246.639 89.7222C256.548 89.7222 266.051 85.786 273.057 78.7794C280.064 71.7728 284 62.2699 284 52.3611C284 42.4523 280.064 32.9494 273.057 25.9428C266.051 18.9362 256.548 15 246.639 15C236.73 15 227.227 18.9362 220.221 25.9428C213.214 32.9494 209.278 42.4523 209.278 52.3611C209.278 62.2699 213.214 71.7728 220.221 78.7794C227.227 85.786 236.73 89.7222 246.639 89.7222Z" stroke="#607EE8" stroke-width="29.8889" stroke-linecap="round" stroke-linejoin="round"/>
</svg>
